<svg xmlns="http://www.w3.org/2000/svg" xmlns:svgjs="http://svgjs.com/svgjs" xmlns:xlink="http://www.w3.org/1999/xlink" width="288" height="288"><svg xmlns="http://www.w3.org/2000/svg" width="288" height="288" fill="none" viewBox="0 0 940 940"><rect width="940" height="940" fill="#1976d2" class="color000 svgShape" rx="470"/><path fill="#fff" fill-rule="evenodd" d="M560.719 351.065C544.568 355.057 465.105 343.33 442.365 339.585C381.567 329.579 378.207 330.961 320.075 346.175C263.112 361.083 180.571 364.226 194.194 431.02C200.479 461.84 221.37 488.251 232.093 451.352C234.296 443.773 236.411 440.155 238.999 435.052C229.035 464.055 238.098 492.68 245.362 522.732C256.521 568.895 247.475 537.365 251.464 572.632C259.103 640.172 218.967 593.12 236.173 708.022C241.386 742.831 248.75 764.217 272.598 790.889L306.723 789.655C302.117 781.095 309.274 786.835 298.154 781.708C295.486 780.479 287.887 779.153 285.019 778.354L285.197 755.73C301.932 765.803 311.598 782.46 322.057 792.54C334.981 793.386 341.819 795.017 350.022 787.112L330.129 777.937C330.268 728.68 303.56 703.194 320.542 678.145C326.042 670.03 323.918 674.495 328.479 665.685C343.487 636.719 348.793 635.353 361.636 599.355C368.958 578.836 370.117 556.399 383.07 540.279C402.504 556.115 384.044 548.711 421.167 571.56C452.513 590.853 434.269 582.121 465.882 587.202C484.956 590.268 455.064 584.459 471.169 588.3L476.155 589.948C481.294 595.707 479.287 667.495 480.288 676.197C481.924 690.43 484.397 685.447 488.067 698.111C499.667 738.164 488.104 754.761 510.357 793.44C521.931 794.943 536.419 796.478 544.293 790.151C537.224 784.507 535.071 786.897 527.709 782.161C526.563 768.772 530.858 757.765 537.142 746.052C553.143 755.546 547.415 766.891 556.547 780.609C563.205 790.608 586.63 790.109 599.493 785.502C596.638 780.66 600.726 784.663 595.491 781.037C585.493 774.109 581.923 778.912 578.14 772.271C576.763 766.942 588.812 651.674 589.884 631.186C592.239 586.151 583.683 585.644 604.934 567.945C611.795 562.228 618.131 553.755 625.449 547.297C640.84 533.711 668.61 520.488 677.306 478.896C681.973 456.575 685.443 433.073 684.15 408.226L687.648 292.583C689.991 273.687 687.464 274.124 685.481 256.513C704.312 261.845 717.615 262.028 730.3 252.66L735.274 248.772C735.337 248.731 742.318 245.399 742.878 245.07L744.48 225.478C733.45 215.84 723.555 219.074 721.286 201.739C719.048 184.64 718.048 183.944 702.391 170.964C683.129 154.99 648.142 149.252 620.379 158.101C615.842 152.014 615.659 149.19 606.785 146.17C597.958 172.336 615.137 148.654 595.665 192.51C587.511 210.875 578.504 214.66 573.729 238.474C570.011 257.015 572.411 276.034 569.971 292.058C567.581 307.759 569.215 336.489 560.707 351.062L560.719 351.065Z" class="colorfff svgShape" clip-rule="evenodd"/></svg></svg>